# xmcd CD database file
#
# Track frame offsets:
#	150
#	22251
#	43917
#	67774
#	92999
#	120211
#	142732
#	169031
#	190644
#
# Disc length: 2737 seconds
#
# Revision: 0
# Processed by: cddbd v1.5.2PL0 Copyright (c) Steve Scherf et al.
# Submitted via: CDex 1.51
#
DISCID=6e0aaf09
DTITLE=Tonolo, Pietro - Your songs - the music of Elton John
DYEAR=2006
DGENRE=Jazz
TTITLE0=Blue eyes
TTITLE1=Tiny dancer
TTITLE2=Rocket man
TTITLE3=Your song
TTITLE4=The one
TTITLE5=Goodbye yellow brick road
TTITLE6=Sorry seems to be the hardest word
TTITLE7=White street
TTITLE8=Epilogue: Semiforte
EXTD=YEAR: 2006
EXTT0=
EXTT1=
EXTT2=
EXTT3=
EXTT4=
EXTT5=
EXTT6=
EXTT7=
EXTT8=
PLAYORDER=
